<svg xmlns="http://www.w3.org/2000/svg" xmlns:xlink="http://www.w3.org/1999/xlink" width="1080" zoomAndPan="magnify" viewBox="0 0 810 809.999993" height="1080" preserveAspectRatio="xMidYMid meet" version="1.0"><defs><clipPath id="ed1c2de6eb"><path d="M 12 69 L 798 69 L 798 740.953125 L 12 740.953125 Z M 12 69 " clip-rule="nonzero"/></clipPath></defs><rect x="-81" width="972" fill="#ffffff" y="-80.999999" height="971.999992" fill-opacity="1"/><rect x="-81" width="972" fill="#ffffff" y="-80.999999" height="971.999992" fill-opacity="1"/><g clip-path="url(#ed1c2de6eb)"><path fill="#ffffff" d="M 404.996094 741.253906 C 401.058594 741.253906 397.085938 740 393.757812 737.496094 L 379.46875 726.777344 C 296.339844 664.632812 123.339844 535.269531 43.085938 386.824219 C -5.53125 296.03125 4.972656 200.414062 71.179688 130.878906 C 109.078125 91.300781 159.40625 69.527344 212.972656 69.527344 C 213 69.527344 213.0625 69.527344 213.09375 69.527344 C 266.597656 69.558594 316.863281 91.332031 354.578125 130.878906 L 405.058594 183.710938 L 455.386719 130.878906 C 493.132812 91.332031 543.398438 69.558594 596.902344 69.527344 C 596.933594 69.527344 596.992188 69.527344 597.023438 69.527344 C 650.585938 69.527344 700.914062 91.300781 738.78125 130.847656 C 805.019531 200.414062 815.527344 296.03125 766.941406 386.761719 C 686.898438 535.117188 513.898438 664.476562 430.742188 726.625 L 416.203125 737.496094 C 412.90625 740 408.9375 741.253906 404.996094 741.253906 Z M 212.972656 106.84375 C 169.699219 106.84375 128.929688 124.527344 98.175781 156.652344 C 43.664062 213.882812 35.359375 293.3125 75.945312 369.109375 C 152.261719 510.320312 320.832031 636.320312 401.820312 696.910156 L 404.996094 699.292969 L 408.417969 696.726562 C 489.40625 636.167969 657.949219 510.167969 734.050781 369.078125 C 774.636719 293.3125 766.328125 213.882812 711.785156 156.625 C 681.066406 124.527344 640.328125 106.84375 597.023438 106.84375 C 596.992188 106.84375 596.960938 106.84375 596.933594 106.84375 C 553.6875 106.875 513.011719 124.558594 482.414062 156.652344 L 418.585938 223.59375 C 415.074219 227.320312 410.1875 229.394531 405.089844 229.394531 C 399.988281 229.394531 395.101562 227.320312 391.589844 223.625 L 327.582031 156.652344 C 296.984375 124.558594 256.304688 106.875 213.0625 106.84375 C 213.03125 106.84375 213 106.84375 212.972656 106.84375 " fill-opacity="1" fill-rule="nonzero"/></g></svg>