<svg xmlns="http://www.w3.org/2000/svg" xmlns:xlink="http://www.w3.org/1999/xlink" width="1080" zoomAndPan="magnify" viewBox="0 0 810 809.999993" height="1080" preserveAspectRatio="xMidYMid meet" version="1.0"><defs><clipPath id="1a4091338c"><path d="M 56.65625 56.65625 L 753.40625 56.65625 L 753.40625 753.40625 L 56.65625 753.40625 Z M 56.65625 56.65625 " clip-rule="nonzero"/></clipPath></defs><rect x="-81" width="972" fill="#ffffff" y="-80.999999" height="971.999992" fill-opacity="1"/><rect x="-81" width="972" fill="#ffffff" y="-80.999999" height="971.999992" fill-opacity="1"/><g clip-path="url(#1a4091338c)"><path fill="#000000" d="M 649.832031 753.40625 L 160.226562 753.40625 C 103.117188 753.40625 56.65625 706.941406 56.65625 649.832031 L 56.65625 160.226562 C 56.65625 103.117188 103.117188 56.65625 160.226562 56.65625 L 649.832031 56.65625 C 706.941406 56.65625 753.40625 103.117188 753.40625 160.226562 L 753.40625 649.832031 C 753.40625 706.941406 706.941406 753.40625 649.832031 753.40625 Z M 160.226562 94.316406 C 123.882812 94.316406 94.316406 123.882812 94.316406 160.226562 L 94.316406 649.832031 C 94.316406 686.175781 123.882812 715.742188 160.226562 715.742188 L 649.832031 715.742188 C 686.175781 715.742188 715.742188 686.175781 715.742188 649.832031 L 715.742188 160.226562 C 715.742188 123.882812 686.175781 94.316406 649.832031 94.316406 Z M 160.226562 94.316406 " fill-opacity="1" fill-rule="nonzero"/></g><path fill="#000000" d="M 405.03125 602.757812 C 296.003906 602.757812 207.304688 514.054688 207.304688 405.03125 C 207.304688 296.003906 296.003906 207.304688 405.03125 207.304688 C 514.054688 207.304688 602.757812 296.003906 602.757812 405.03125 C 602.757812 514.054688 514.054688 602.757812 405.03125 602.757812 Z M 405.03125 244.964844 C 316.769531 244.964844 244.964844 316.769531 244.964844 405.03125 C 244.964844 493.289062 316.769531 565.09375 405.03125 565.09375 C 493.289062 565.09375 565.09375 493.289062 565.09375 405.03125 C 565.09375 316.769531 493.289062 244.964844 405.03125 244.964844 Z M 405.03125 244.964844 " fill-opacity="1" fill-rule="nonzero"/><path fill="#000000" d="M 612.171875 263.796875 C 575.828125 263.796875 546.261719 234.230469 546.261719 197.886719 C 546.261719 161.546875 575.828125 131.980469 612.171875 131.980469 C 648.515625 131.980469 678.082031 161.546875 678.082031 197.886719 C 678.082031 234.230469 648.515625 263.796875 612.171875 263.796875 Z M 612.171875 169.640625 C 596.597656 169.640625 583.925781 182.3125 583.925781 197.886719 C 583.925781 213.464844 596.597656 226.132812 612.171875 226.132812 C 627.746094 226.132812 640.417969 213.464844 640.417969 197.886719 C 640.417969 182.3125 627.746094 169.640625 612.171875 169.640625 Z M 612.171875 169.640625 " fill-opacity="1" fill-rule="nonzero"/></svg>