<svg xmlns="http://www.w3.org/2000/svg" xmlns:xlink="http://www.w3.org/1999/xlink" width="1080" zoomAndPan="magnify" viewBox="0 0 810 809.999993" height="1080" preserveAspectRatio="xMidYMid meet" version="1.0"><defs><clipPath id="7ba767a14a"><path d="M 15 44 L 795 44 L 795 768.390625 L 15 768.390625 Z M 15 44 " clip-rule="nonzero"/></clipPath></defs><rect x="-81" width="972" fill="#ffffff" y="-80.999999" height="971.999992" fill-opacity="1"/><rect x="-81" width="972" fill="#ffffff" y="-80.999999" height="971.999992" fill-opacity="1"/><g clip-path="url(#7ba767a14a)"><path fill="#ffffff" d="M 739.117188 211.488281 L 640.832031 211.488281 L 509.96875 54.449219 C 509.382812 53.746094 508.765625 53.074219 508.117188 52.433594 C 507.46875 51.789062 506.789062 51.179688 506.078125 50.605469 C 505.371094 50.03125 504.632812 49.492188 503.871094 48.988281 C 503.109375 48.484375 502.324219 48.019531 501.515625 47.59375 C 500.707031 47.167969 499.882812 46.785156 499.035156 46.4375 C 498.1875 46.09375 497.328125 45.792969 496.453125 45.53125 C 495.578125 45.273438 494.691406 45.054688 493.792969 44.882812 C 492.898438 44.710938 491.992188 44.582031 491.085938 44.496094 C 490.175781 44.414062 489.261719 44.375 488.351562 44.378906 C 487.4375 44.382812 486.527344 44.433594 485.617188 44.53125 C 484.710938 44.625 483.808594 44.765625 482.914062 44.949219 C 482.019531 45.132812 481.132812 45.359375 480.261719 45.628906 C 479.390625 45.898438 478.53125 46.210938 477.691406 46.566406 C 476.847656 46.921875 476.027344 47.316406 475.222656 47.75 C 474.421875 48.1875 473.640625 48.660156 472.886719 49.171875 C 472.128906 49.6875 471.398438 50.234375 470.695312 50.816406 C 469.996094 51.402344 469.324219 52.019531 468.679688 52.667969 C 468.039062 53.316406 467.429688 53.996094 466.855469 54.707031 C 466.28125 55.417969 465.742188 56.152344 465.238281 56.917969 C 464.734375 57.679688 464.273438 58.464844 463.847656 59.273438 C 463.421875 60.082031 463.035156 60.90625 462.691406 61.753906 C 462.347656 62.601562 462.046875 63.460938 461.789062 64.335938 C 461.527344 65.210938 461.3125 66.097656 461.140625 66.996094 C 460.96875 67.894531 460.839844 68.796875 460.753906 69.707031 C 460.671875 70.617188 460.632812 71.527344 460.640625 72.441406 C 460.644531 73.351562 460.695312 74.265625 460.792969 75.171875 C 460.886719 76.082031 461.027344 76.984375 461.210938 77.878906 C 461.394531 78.773438 461.621094 79.65625 461.894531 80.527344 C 462.164062 81.398438 462.476562 82.257812 462.832031 83.097656 C 463.1875 83.941406 463.582031 84.761719 464.019531 85.566406 C 464.457031 86.367188 464.929688 87.144531 465.441406 87.902344 C 465.957031 88.660156 466.503906 89.386719 467.089844 90.089844 L 568.4375 211.488281 L 241.554688 211.488281 L 342.90625 90.089844 C 343.492188 89.386719 344.039062 88.660156 344.550781 87.902344 C 345.0625 87.144531 345.539062 86.367188 345.972656 85.566406 C 346.410156 84.761719 346.804688 83.941406 347.160156 83.097656 C 347.515625 82.257812 347.828125 81.398438 348.101562 80.527344 C 348.371094 79.65625 348.597656 78.773438 348.78125 77.878906 C 348.96875 76.984375 349.105469 76.082031 349.203125 75.171875 C 349.296875 74.265625 349.347656 73.351562 349.355469 72.441406 C 349.359375 71.527344 349.320312 70.617188 349.238281 69.707031 C 349.15625 68.796875 349.027344 67.894531 348.855469 66.996094 C 348.683594 66.097656 348.464844 65.210938 348.207031 64.335938 C 347.945312 63.460938 347.644531 62.601562 347.300781 61.753906 C 346.957031 60.90625 346.574219 60.082031 346.148438 59.273438 C 345.722656 58.464844 345.257812 57.679688 344.753906 56.914062 C 344.253906 56.152344 343.714844 55.417969 343.136719 54.707031 C 342.5625 53.996094 341.957031 53.316406 341.3125 52.667969 C 340.671875 52.019531 340 51.402344 339.296875 50.816406 C 338.59375 50.234375 337.863281 49.6875 337.109375 49.171875 C 336.351562 48.660156 335.574219 48.1875 334.769531 47.75 C 333.96875 47.316406 333.144531 46.921875 332.304688 46.566406 C 331.460938 46.210938 330.605469 45.898438 329.730469 45.628906 C 328.859375 45.359375 327.976562 45.132812 327.082031 44.949219 C 326.1875 44.765625 325.285156 44.625 324.375 44.53125 C 323.46875 44.433594 322.558594 44.382812 321.644531 44.378906 C 320.730469 44.375 319.820312 44.414062 318.910156 44.496094 C 318 44.582031 317.097656 44.710938 316.199219 44.882812 C 315.304688 45.054688 314.417969 45.273438 313.542969 45.53125 C 312.664062 45.792969 311.804688 46.09375 310.957031 46.4375 C 310.113281 46.785156 309.285156 47.167969 308.476562 47.59375 C 307.671875 48.019531 306.882812 48.484375 306.121094 48.988281 C 305.359375 49.492188 304.625 50.03125 303.914062 50.605469 C 303.207031 51.179688 302.527344 51.789062 301.875 52.433594 C 301.226562 53.074219 300.609375 53.746094 300.027344 54.449219 L 169.164062 211.488281 L 70.875 211.488281 C 69.050781 211.488281 67.230469 211.578125 65.417969 211.753906 C 63.601562 211.933594 61.800781 212.203125 60.011719 212.558594 C 58.222656 212.914062 56.457031 213.355469 54.710938 213.886719 C 52.964844 214.414062 51.25 215.027344 49.566406 215.726562 C 47.878906 216.425781 46.234375 217.203125 44.625 218.0625 C 43.015625 218.921875 41.453125 219.859375 39.9375 220.871094 C 38.421875 221.886719 36.957031 222.96875 35.546875 224.128906 C 34.136719 225.285156 32.789062 226.507812 31.5 227.796875 C 30.207031 229.085938 28.984375 230.4375 27.828125 231.847656 C 26.671875 233.257812 25.585938 234.71875 24.574219 236.234375 C 23.558594 237.753906 22.625 239.316406 21.765625 240.921875 C 20.902344 242.53125 20.125 244.179688 19.425781 245.863281 C 18.730469 247.546875 18.117188 249.265625 17.585938 251.007812 C 17.058594 252.753906 16.613281 254.519531 16.257812 256.308594 C 15.902344 258.097656 15.636719 259.902344 15.457031 261.714844 C 15.277344 263.53125 15.1875 265.351562 15.1875 267.175781 L 15.1875 322.859375 C 15.195312 325.417969 15.378906 327.964844 15.738281 330.5 C 16.097656 333.03125 16.628906 335.53125 17.332031 337.988281 C 18.035156 340.449219 18.902344 342.851562 19.933594 345.191406 C 20.96875 347.53125 22.160156 349.789062 23.503906 351.964844 C 24.847656 354.144531 26.335938 356.21875 27.96875 358.1875 C 29.597656 360.160156 31.355469 362.011719 33.242188 363.738281 C 35.128906 365.46875 37.125 367.058594 39.230469 368.515625 C 41.335938 369.96875 43.53125 371.269531 45.816406 372.421875 L 55.28125 438.410156 C 55.414062 439.324219 55.589844 440.226562 55.8125 441.121094 C 56.035156 442.015625 56.296875 442.898438 56.605469 443.765625 C 56.914062 444.632812 57.261719 445.484375 57.652344 446.320312 C 58.046875 447.15625 58.476562 447.96875 58.949219 448.757812 C 59.417969 449.550781 59.925781 450.316406 60.472656 451.058594 C 61.019531 451.800781 61.601562 452.515625 62.21875 453.199219 C 62.835938 453.886719 63.484375 454.539062 64.164062 455.160156 C 64.84375 455.78125 65.554688 456.367188 66.292969 456.917969 C 67.03125 457.46875 67.792969 457.980469 68.582031 458.457031 C 69.371094 458.933594 70.183594 459.371094 71.015625 459.769531 C 71.847656 460.164062 72.695312 460.519531 73.5625 460.832031 C 74.429688 461.144531 75.308594 461.417969 76.199219 461.644531 C 77.09375 461.871094 77.996094 462.050781 78.90625 462.191406 C 79.816406 462.328125 80.734375 462.421875 81.652344 462.46875 C 82.574219 462.519531 83.496094 462.523438 84.414062 462.480469 C 85.335938 462.4375 86.25 462.351562 87.164062 462.21875 C 88.074219 462.085938 88.980469 461.910156 89.875 461.6875 C 90.769531 461.46875 91.648438 461.203125 92.519531 460.894531 C 93.386719 460.585938 94.238281 460.238281 95.074219 459.847656 C 95.90625 459.457031 96.71875 459.023438 97.511719 458.554688 C 98.304688 458.082031 99.070312 457.574219 99.8125 457.027344 C 100.554688 456.480469 101.265625 455.898438 101.953125 455.28125 C 102.636719 454.664062 103.289062 454.015625 103.910156 453.335938 C 104.53125 452.65625 105.117188 451.945312 105.667969 451.207031 C 106.222656 450.46875 106.734375 449.707031 107.210938 448.917969 C 107.6875 448.128906 108.125 447.316406 108.519531 446.484375 C 108.917969 445.65625 109.273438 444.804688 109.585938 443.9375 C 109.898438 443.074219 110.167969 442.191406 110.394531 441.300781 C 110.621094 440.40625 110.804688 439.503906 110.941406 438.59375 C 111.082031 437.683594 111.175781 436.765625 111.222656 435.847656 C 111.269531 434.925781 111.273438 434.007812 111.230469 433.085938 C 111.1875 432.164062 111.101562 431.25 110.96875 430.335938 L 102.894531 378.546875 L 707.097656 378.546875 L 662.828125 688.722656 C 662.710938 689.550781 662.554688 690.371094 662.367188 691.1875 C 662.175781 692 661.949219 692.804688 661.683594 693.597656 C 661.421875 694.390625 661.121094 695.171875 660.789062 695.9375 C 660.457031 696.703125 660.089844 697.453125 659.6875 698.1875 C 659.285156 698.921875 658.851562 699.636719 658.386719 700.328125 C 657.921875 701.023438 657.425781 701.695312 656.898438 702.347656 C 656.375 702.996094 655.820312 703.621094 655.238281 704.222656 C 654.65625 704.820312 654.046875 705.394531 653.414062 705.9375 C 652.78125 706.484375 652.121094 707 651.441406 707.484375 C 650.761719 707.96875 650.0625 708.425781 649.339844 708.847656 C 648.617188 709.269531 647.878906 709.660156 647.125 710.015625 C 646.367188 710.371094 645.597656 710.695312 644.8125 710.980469 C 644.027344 711.269531 643.230469 711.519531 642.421875 711.734375 C 641.613281 711.949219 640.796875 712.128906 639.972656 712.269531 C 639.148438 712.410156 638.320312 712.515625 637.488281 712.582031 C 636.65625 712.648438 635.820312 712.679688 634.984375 712.667969 L 572.058594 712.667969 C 571.144531 712.667969 570.234375 712.714844 569.328125 712.804688 C 568.421875 712.894531 567.519531 713.027344 566.625 713.203125 C 565.730469 713.382812 564.847656 713.605469 563.976562 713.867188 C 563.101562 714.132812 562.246094 714.441406 561.402344 714.789062 C 560.558594 715.136719 559.738281 715.527344 558.933594 715.957031 C 558.128906 716.386719 557.347656 716.855469 556.589844 717.363281 C 555.832031 717.867188 555.097656 718.410156 554.394531 718.988281 C 553.6875 719.570312 553.015625 720.179688 552.371094 720.824219 C 551.726562 721.46875 551.113281 722.144531 550.535156 722.847656 C 549.957031 723.554688 549.414062 724.285156 548.90625 725.042969 C 548.398438 725.800781 547.933594 726.582031 547.503906 727.386719 C 547.070312 728.191406 546.683594 729.015625 546.332031 729.859375 C 545.984375 730.699219 545.679688 731.558594 545.414062 732.429688 C 545.148438 733.304688 544.925781 734.1875 544.75 735.082031 C 544.570312 735.976562 544.4375 736.875 544.347656 737.785156 C 544.257812 738.691406 544.214844 739.601562 544.214844 740.511719 C 544.214844 741.425781 544.257812 742.335938 544.347656 743.242188 C 544.4375 744.148438 544.570312 745.050781 544.75 745.945312 C 544.925781 746.839844 545.148438 747.722656 545.414062 748.597656 C 545.679688 749.46875 545.984375 750.324219 546.332031 751.167969 C 546.683594 752.011719 547.070312 752.835938 547.503906 753.636719 C 547.933594 754.441406 548.398438 755.222656 548.90625 755.980469 C 549.414062 756.742188 549.957031 757.472656 550.535156 758.175781 C 551.113281 758.882812 551.726562 759.558594 552.371094 760.203125 C 553.015625 760.847656 553.6875 761.457031 554.394531 762.035156 C 555.097656 762.613281 555.832031 763.15625 556.589844 763.664062 C 557.347656 764.171875 558.128906 764.640625 558.933594 765.070312 C 559.738281 765.5 560.558594 765.886719 561.402344 766.238281 C 562.246094 766.585938 563.101562 766.894531 563.976562 767.15625 C 564.847656 767.421875 565.730469 767.644531 566.625 767.820312 C 567.519531 768 568.421875 768.132812 569.328125 768.222656 C 570.234375 768.3125 571.144531 768.355469 572.058594 768.355469 L 635.261719 768.355469 C 637.769531 768.382812 640.273438 768.292969 642.773438 768.09375 C 645.273438 767.890625 647.761719 767.578125 650.230469 767.152344 C 652.703125 766.730469 655.152344 766.195312 657.574219 765.550781 C 660 764.902344 662.386719 764.152344 664.742188 763.289062 C 667.101562 762.429688 669.410156 761.464844 671.679688 760.398438 C 673.949219 759.328125 676.167969 758.160156 678.328125 756.890625 C 680.492188 755.621094 682.59375 754.257812 684.636719 752.800781 C 686.675781 751.34375 688.648438 749.796875 690.550781 748.160156 C 692.453125 746.527344 694.277344 744.808594 696.023438 743.007812 C 697.769531 741.210938 699.433594 739.335938 701.007812 737.386719 C 702.585938 735.4375 704.074219 733.421875 705.472656 731.335938 C 706.867188 729.253906 708.167969 727.113281 709.371094 724.910156 C 710.574219 722.710938 711.675781 720.460938 712.675781 718.160156 C 713.679688 715.863281 714.574219 713.523438 715.363281 711.140625 C 716.152344 708.761719 716.835938 706.351562 717.40625 703.90625 C 717.980469 701.464844 718.441406 699.003906 718.792969 696.519531 L 764.179688 372.421875 C 766.460938 371.269531 768.65625 369.96875 770.761719 368.515625 C 772.867188 367.058594 774.863281 365.46875 776.75 363.738281 C 778.636719 362.011719 780.394531 360.160156 782.027344 358.1875 C 783.65625 356.21875 785.144531 354.144531 786.492188 351.964844 C 787.835938 349.789062 789.023438 347.53125 790.058594 345.191406 C 791.09375 342.851562 791.960938 340.449219 792.664062 337.988281 C 793.367188 335.53125 793.898438 333.03125 794.257812 330.5 C 794.613281 327.964844 794.796875 325.417969 794.804688 322.859375 L 794.804688 267.175781 C 794.804688 265.351562 794.714844 263.53125 794.539062 261.714844 C 794.359375 259.902344 794.089844 258.097656 793.734375 256.308594 C 793.378906 254.519531 792.9375 252.753906 792.40625 251.007812 C 791.878906 249.265625 791.265625 247.546875 790.566406 245.863281 C 789.867188 244.179688 789.089844 242.53125 788.230469 240.921875 C 787.371094 239.316406 786.433594 237.753906 785.421875 236.234375 C 784.40625 234.71875 783.320312 233.257812 782.164062 231.847656 C 781.007812 230.4375 779.785156 229.085938 778.496094 227.796875 C 777.207031 226.507812 775.855469 225.285156 774.445312 224.128906 C 773.035156 222.96875 771.574219 221.886719 770.054688 220.871094 C 768.539062 219.859375 766.976562 218.921875 765.371094 218.0625 C 763.761719 217.203125 762.113281 216.425781 760.429688 215.726562 C 758.746094 215.027344 757.027344 214.414062 755.285156 213.886719 C 753.539062 213.355469 751.769531 212.914062 749.984375 212.558594 C 748.195312 212.203125 746.390625 211.933594 744.578125 211.753906 C 742.761719 211.578125 740.941406 211.488281 739.117188 211.488281 Z M 70.875 322.859375 L 70.875 267.175781 L 739.117188 267.175781 L 739.117188 322.859375 Z M 516.371094 740.511719 C 516.371094 741.425781 516.328125 742.335938 516.238281 743.242188 C 516.148438 744.148438 516.015625 745.050781 515.835938 745.945312 C 515.65625 746.839844 515.4375 747.722656 515.171875 748.597656 C 514.90625 749.46875 514.601562 750.324219 514.25 751.167969 C 513.902344 752.011719 513.511719 752.835938 513.082031 753.636719 C 512.652344 754.441406 512.183594 755.222656 511.679688 755.980469 C 511.171875 756.742188 510.628906 757.472656 510.050781 758.175781 C 509.472656 758.882812 508.859375 759.558594 508.214844 760.203125 C 507.570312 760.847656 506.894531 761.457031 506.191406 762.035156 C 505.484375 762.613281 504.753906 763.15625 503.996094 763.664062 C 503.238281 764.171875 502.457031 764.640625 501.652344 765.070312 C 500.847656 765.5 500.023438 765.886719 499.183594 766.238281 C 498.339844 766.585938 497.484375 766.894531 496.609375 767.15625 C 495.738281 767.421875 494.855469 767.644531 493.960938 767.820312 C 493.066406 768 492.164062 768.132812 491.257812 768.222656 C 490.347656 768.3125 489.4375 768.355469 488.527344 768.355469 L 174.730469 768.355469 C 172.222656 768.382812 169.71875 768.292969 167.21875 768.09375 C 164.71875 767.890625 162.234375 767.578125 159.761719 767.152344 C 157.289062 766.730469 154.84375 766.195312 152.417969 765.550781 C 149.996094 764.902344 147.605469 764.152344 145.25 763.289062 C 142.894531 762.429688 140.582031 761.464844 138.3125 760.394531 C 136.042969 759.328125 133.828125 758.160156 131.664062 756.890625 C 129.5 755.621094 127.398438 754.257812 125.359375 752.800781 C 123.316406 751.34375 121.347656 749.796875 119.445312 748.160156 C 117.542969 746.527344 115.71875 744.808594 113.972656 743.007812 C 112.226562 741.210938 110.5625 739.335938 108.984375 737.386719 C 107.40625 735.4375 105.917969 733.421875 104.523438 731.335938 C 103.125 729.253906 101.828125 727.113281 100.625 724.910156 C 99.417969 722.710938 98.316406 720.460938 97.316406 718.160156 C 96.316406 715.863281 95.421875 713.519531 94.628906 711.140625 C 93.839844 708.761719 93.160156 706.351562 92.585938 703.90625 C 92.015625 701.464844 91.550781 699.003906 91.199219 696.519531 L 66.421875 517.765625 C 66.292969 516.863281 66.210938 515.957031 66.171875 515.042969 C 66.132812 514.132812 66.140625 513.222656 66.191406 512.3125 C 66.242188 511.402344 66.335938 510.496094 66.476562 509.597656 C 66.617188 508.695312 66.800781 507.804688 67.027344 506.921875 C 67.253906 506.039062 67.527344 505.167969 67.839844 504.3125 C 68.152344 503.457031 68.507812 502.617188 68.902344 501.796875 C 69.296875 500.972656 69.730469 500.171875 70.207031 499.394531 C 70.679688 498.617188 71.191406 497.863281 71.738281 497.132812 C 72.285156 496.40625 72.871094 495.703125 73.484375 495.035156 C 74.101562 494.363281 74.75 493.722656 75.429688 493.113281 C 76.109375 492.507812 76.820312 491.933594 77.554688 491.394531 C 78.289062 490.859375 79.050781 490.355469 79.835938 489.894531 C 80.621094 489.429688 81.425781 489.007812 82.253906 488.621094 C 83.082031 488.238281 83.925781 487.894531 84.785156 487.59375 C 85.644531 487.292969 86.519531 487.03125 87.40625 486.816406 C 88.289062 486.601562 89.183594 486.429688 90.085938 486.300781 C 90.988281 486.175781 91.898438 486.09375 92.808594 486.054688 C 93.71875 486.015625 94.628906 486.019531 95.539062 486.070312 C 96.449219 486.125 97.355469 486.21875 98.257812 486.359375 C 99.15625 486.5 100.050781 486.683594 100.933594 486.910156 C 101.816406 487.136719 102.683594 487.40625 103.539062 487.722656 C 104.398438 488.035156 105.234375 488.386719 106.058594 488.785156 C 106.878906 489.179688 107.679688 489.613281 108.457031 490.085938 C 109.238281 490.5625 109.992188 491.074219 110.71875 491.621094 C 111.449219 492.167969 112.148438 492.75 112.820312 493.367188 C 113.492188 493.984375 114.128906 494.632812 114.738281 495.3125 C 115.347656 495.992188 115.917969 496.699219 116.457031 497.4375 C 116.996094 498.171875 117.496094 498.933594 117.960938 499.71875 C 118.421875 500.503906 118.847656 501.308594 119.230469 502.136719 C 119.617188 502.960938 119.957031 503.804688 120.257812 504.667969 C 120.5625 505.527344 120.820312 506.402344 121.035156 507.285156 C 121.25 508.171875 121.421875 509.066406 121.550781 509.96875 L 147.167969 689.28125 C 147.285156 690.109375 147.4375 690.929688 147.628906 691.742188 C 147.820312 692.558594 148.046875 693.363281 148.308594 694.15625 C 148.574219 694.949219 148.871094 695.726562 149.203125 696.496094 C 149.539062 697.261719 149.90625 698.011719 150.308594 698.746094 C 150.707031 699.476562 151.140625 700.191406 151.605469 700.886719 C 152.074219 701.582031 152.566406 702.253906 153.09375 702.902344 C 153.621094 703.554688 154.175781 704.179688 154.757812 704.777344 C 155.339844 705.378906 155.945312 705.949219 156.582031 706.496094 C 157.214844 707.039062 157.871094 707.554688 158.550781 708.042969 C 159.230469 708.527344 159.933594 708.980469 160.652344 709.40625 C 161.375 709.828125 162.113281 710.21875 162.871094 710.574219 C 163.625 710.929688 164.398438 711.25 165.183594 711.539062 C 165.96875 711.824219 166.765625 712.074219 167.574219 712.289062 C 168.378906 712.507812 169.195312 712.683594 170.019531 712.824219 C 170.84375 712.96875 171.671875 713.070312 172.507812 713.136719 C 173.339844 713.207031 174.175781 713.234375 175.011719 713.226562 L 488.527344 713.226562 C 489.429688 713.226562 490.324219 713.269531 491.222656 713.355469 C 492.117188 713.445312 493.007812 713.574219 493.890625 713.746094 C 494.777344 713.921875 495.648438 714.136719 496.511719 714.394531 C 497.375 714.652344 498.222656 714.953125 499.054688 715.292969 C 499.890625 715.632812 500.703125 716.011719 501.5 716.429688 C 502.296875 716.851562 503.074219 717.308594 503.824219 717.800781 C 504.578125 718.296875 505.304688 718.824219 506.003906 719.390625 C 506.707031 719.957031 507.378906 720.554688 508.019531 721.183594 C 508.664062 721.8125 509.277344 722.472656 509.855469 723.164062 C 510.433594 723.851562 510.976562 724.570312 511.488281 725.3125 C 511.996094 726.054688 512.46875 726.820312 512.90625 727.605469 C 513.339844 728.394531 513.738281 729.203125 514.09375 730.027344 C 514.449219 730.855469 514.765625 731.699219 515.042969 732.554688 C 515.316406 733.410156 515.550781 734.28125 515.742188 735.160156 C 515.933594 736.039062 516.082031 736.925781 516.1875 737.820312 C 516.292969 738.714844 516.351562 739.613281 516.371094 740.511719 Z M 237.9375 633.59375 L 210.09375 466.535156 C 209.945312 465.621094 209.84375 464.703125 209.789062 463.78125 C 209.734375 462.859375 209.722656 461.9375 209.757812 461.015625 C 209.792969 460.089844 209.871094 459.171875 209.996094 458.257812 C 210.121094 457.34375 210.289062 456.433594 210.503906 455.535156 C 210.71875 454.636719 210.976562 453.753906 211.277344 452.878906 C 211.578125 452.003906 211.921875 451.148438 212.304688 450.308594 C 212.691406 449.46875 213.117188 448.652344 213.582031 447.855469 C 214.046875 447.054688 214.550781 446.28125 215.09375 445.535156 C 215.636719 444.785156 216.210938 444.066406 216.824219 443.375 C 217.4375 442.683594 218.082031 442.023438 218.757812 441.394531 C 219.4375 440.765625 220.140625 440.171875 220.878906 439.613281 C 221.613281 439.054688 222.375 438.535156 223.160156 438.050781 C 223.949219 437.566406 224.757812 437.121094 225.585938 436.71875 C 226.417969 436.3125 227.265625 435.949219 228.132812 435.628906 C 229 435.308594 229.878906 435.03125 230.769531 434.796875 C 231.664062 434.5625 232.566406 434.371094 233.480469 434.226562 C 234.390625 434.078125 235.308594 433.980469 236.230469 433.921875 C 237.152344 433.867188 238.074219 433.855469 239 433.890625 C 239.921875 433.925781 240.839844 434.007812 241.753906 434.132812 C 242.671875 434.257812 243.578125 434.425781 244.476562 434.640625 C 245.375 434.855469 246.261719 435.113281 247.132812 435.414062 C 248.007812 435.714844 248.863281 436.058594 249.703125 436.445312 C 250.542969 436.828125 251.359375 437.253906 252.160156 437.722656 C 252.957031 438.1875 253.730469 438.691406 254.476562 439.234375 C 255.226562 439.773438 255.945312 440.351562 256.636719 440.964844 C 257.328125 441.578125 257.988281 442.222656 258.613281 442.898438 C 259.242188 443.578125 259.835938 444.285156 260.394531 445.019531 C 260.953125 445.753906 261.472656 446.515625 261.957031 447.304688 C 262.441406 448.089844 262.886719 448.898438 263.289062 449.730469 C 263.695312 450.5625 264.054688 451.410156 264.375 452.277344 C 264.699219 453.140625 264.976562 454.023438 265.210938 454.914062 C 265.445312 455.808594 265.632812 456.710938 265.78125 457.625 L 293.625 624.683594 C 293.78125 625.597656 293.894531 626.515625 293.960938 627.441406 C 294.027344 628.363281 294.046875 629.289062 294.019531 630.21875 C 293.996094 631.144531 293.921875 632.066406 293.804688 632.984375 C 293.6875 633.90625 293.523438 634.816406 293.3125 635.71875 C 293.105469 636.621094 292.851562 637.511719 292.550781 638.390625 C 292.253906 639.265625 291.914062 640.128906 291.527344 640.972656 C 291.144531 641.816406 290.71875 642.636719 290.253906 643.4375 C 289.789062 644.238281 289.28125 645.015625 288.738281 645.765625 C 288.195312 646.515625 287.617188 647.238281 287 647.929688 C 286.386719 648.625 285.738281 649.285156 285.054688 649.910156 C 284.375 650.539062 283.660156 651.132812 282.921875 651.6875 C 282.179688 652.246094 281.414062 652.765625 280.621094 653.246094 C 279.828125 653.726562 279.015625 654.164062 278.179688 654.566406 C 277.339844 654.964844 276.488281 655.320312 275.613281 655.632812 C 274.742188 655.949219 273.859375 656.21875 272.957031 656.441406 C 272.058594 656.667969 271.152344 656.847656 270.234375 656.984375 L 265.78125 656.984375 C 264.953125 656.992188 264.128906 656.96875 263.304688 656.90625 C 262.480469 656.84375 261.664062 656.742188 260.847656 656.605469 C 260.03125 656.472656 259.226562 656.300781 258.425781 656.09375 C 257.625 655.882812 256.835938 655.640625 256.058594 655.363281 C 255.28125 655.085938 254.519531 654.773438 253.769531 654.429688 C 253.015625 654.082031 252.285156 653.703125 251.566406 653.292969 C 250.851562 652.882812 250.152344 652.441406 249.476562 651.96875 C 248.800781 651.496094 248.144531 650.992188 247.511719 650.460938 C 246.878906 649.929688 246.273438 649.371094 245.691406 648.785156 C 245.105469 648.199219 244.550781 647.589844 244.023438 646.957031 C 243.496094 646.320312 242.996094 645.664062 242.523438 644.984375 C 242.054688 644.304688 241.617188 643.605469 241.207031 642.890625 C 240.800781 642.171875 240.425781 641.433594 240.082031 640.683594 C 239.742188 639.933594 239.433594 639.167969 239.15625 638.386719 C 238.882812 637.609375 238.644531 636.820312 238.441406 636.019531 C 238.234375 635.21875 238.066406 634.410156 237.9375 633.59375 Z M 404.996094 656.984375 C 404.085938 656.984375 403.175781 656.9375 402.269531 656.847656 C 401.359375 656.757812 400.460938 656.625 399.566406 656.449219 C 398.671875 656.269531 397.785156 656.046875 396.914062 655.785156 C 396.042969 655.519531 395.183594 655.210938 394.339844 654.863281 C 393.5 654.515625 392.675781 654.125 391.871094 653.695312 C 391.066406 653.265625 390.285156 652.796875 389.527344 652.289062 C 388.769531 651.785156 388.039062 651.242188 387.332031 650.664062 C 386.628906 650.085938 385.953125 649.472656 385.308594 648.828125 C 384.664062 648.183594 384.050781 647.507812 383.472656 646.804688 C 382.894531 646.097656 382.351562 645.367188 381.847656 644.609375 C 381.339844 643.851562 380.871094 643.070312 380.441406 642.265625 C 380.011719 641.460938 379.621094 640.636719 379.273438 639.792969 C 378.925781 638.953125 378.617188 638.09375 378.351562 637.222656 C 378.085938 636.347656 377.867188 635.464844 377.6875 634.570312 C 377.511719 633.675781 377.375 632.777344 377.289062 631.867188 C 377.199219 630.960938 377.152344 630.050781 377.152344 629.140625 L 377.152344 462.078125 C 377.152344 461.167969 377.199219 460.257812 377.289062 459.347656 C 377.375 458.441406 377.511719 457.539062 377.6875 456.644531 C 377.867188 455.753906 378.085938 454.867188 378.351562 453.996094 C 378.617188 453.125 378.925781 452.265625 379.273438 451.421875 C 379.621094 450.582031 380.011719 449.757812 380.441406 448.953125 C 380.871094 448.148438 381.339844 447.367188 381.847656 446.609375 C 382.351562 445.851562 382.894531 445.121094 383.472656 444.414062 C 384.050781 443.710938 384.664062 443.035156 385.308594 442.390625 C 385.953125 441.746094 386.628906 441.132812 387.332031 440.554688 C 388.039062 439.976562 388.769531 439.433594 389.527344 438.925781 C 390.285156 438.421875 391.066406 437.953125 391.871094 437.523438 C 392.675781 437.09375 393.5 436.703125 394.339844 436.355469 C 395.183594 436.003906 396.042969 435.699219 396.914062 435.433594 C 397.785156 435.167969 398.671875 434.949219 399.566406 434.769531 C 400.460938 434.59375 401.359375 434.457031 402.269531 434.367188 C 403.175781 434.28125 404.085938 434.234375 404.996094 434.234375 C 405.910156 434.234375 406.820312 434.28125 407.726562 434.367188 C 408.632812 434.457031 409.535156 434.59375 410.429688 434.769531 C 411.324219 434.949219 412.207031 435.167969 413.078125 435.433594 C 413.953125 435.699219 414.808594 436.003906 415.652344 436.355469 C 416.496094 436.703125 417.316406 437.09375 418.121094 437.523438 C 418.925781 437.953125 419.707031 438.421875 420.464844 438.925781 C 421.222656 439.433594 421.957031 439.976562 422.660156 440.554688 C 423.367188 441.132812 424.039062 441.746094 424.683594 442.390625 C 425.332031 443.035156 425.941406 443.710938 426.519531 444.414062 C 427.097656 445.121094 427.640625 445.851562 428.148438 446.609375 C 428.65625 447.367188 429.121094 448.148438 429.550781 448.953125 C 429.984375 449.757812 430.371094 450.582031 430.722656 451.421875 C 431.070312 452.265625 431.375 453.125 431.640625 453.996094 C 431.90625 454.867188 432.128906 455.753906 432.304688 456.644531 C 432.484375 457.539062 432.617188 458.441406 432.707031 459.347656 C 432.796875 460.257812 432.839844 461.167969 432.839844 462.078125 L 432.839844 629.140625 C 432.839844 630.050781 432.796875 630.960938 432.707031 631.867188 C 432.617188 632.777344 432.484375 633.675781 432.304688 634.570312 C 432.128906 635.464844 431.90625 636.347656 431.640625 637.222656 C 431.375 638.09375 431.070312 638.953125 430.722656 639.792969 C 430.371094 640.636719 429.984375 641.460938 429.550781 642.265625 C 429.121094 643.070312 428.65625 643.851562 428.148438 644.609375 C 427.640625 645.367188 427.097656 646.097656 426.519531 646.804688 C 425.941406 647.507812 425.332031 648.183594 424.683594 648.828125 C 424.039062 649.472656 423.367188 650.085938 422.660156 650.664062 C 421.957031 651.242188 421.222656 651.785156 420.464844 652.289062 C 419.707031 652.796875 418.925781 653.265625 418.121094 653.695312 C 417.316406 654.125 416.496094 654.515625 415.652344 654.863281 C 414.808594 655.210938 413.953125 655.519531 413.078125 655.785156 C 412.207031 656.046875 411.324219 656.269531 410.429688 656.449219 C 409.535156 656.625 408.632812 656.757812 407.726562 656.847656 C 406.820312 656.9375 405.910156 656.984375 404.996094 656.984375 Z M 544.214844 656.984375 L 539.757812 656.984375 C 538.84375 656.847656 537.933594 656.667969 537.035156 656.441406 C 536.136719 656.21875 535.25 655.949219 534.378906 655.632812 C 533.507812 655.320312 532.652344 654.964844 531.816406 654.566406 C 530.980469 654.164062 530.164062 653.726562 529.371094 653.246094 C 528.582031 652.765625 527.8125 652.246094 527.074219 651.6875 C 526.332031 651.132812 525.621094 650.539062 524.9375 649.910156 C 524.257812 649.285156 523.609375 648.625 522.992188 647.929688 C 522.378906 647.238281 521.796875 646.515625 521.253906 645.765625 C 520.710938 645.015625 520.207031 644.238281 519.738281 643.4375 C 519.273438 642.636719 518.847656 641.8125 518.464844 640.972656 C 518.082031 640.128906 517.738281 639.265625 517.441406 638.390625 C 517.144531 637.511719 516.890625 636.621094 516.679688 635.71875 C 516.472656 634.816406 516.308594 633.90625 516.191406 632.984375 C 516.070312 632.066406 516 631.144531 515.972656 630.21875 C 515.949219 629.289062 515.96875 628.363281 516.035156 627.441406 C 516.101562 626.515625 516.210938 625.597656 516.371094 624.683594 L 544.214844 457.625 C 544.359375 456.710938 544.550781 455.808594 544.78125 454.914062 C 545.015625 454.019531 545.292969 453.140625 545.613281 452.273438 C 545.933594 451.40625 546.296875 450.554688 546.699219 449.726562 C 547.105469 448.894531 547.546875 448.085938 548.03125 447.296875 C 548.515625 446.507812 549.035156 445.746094 549.59375 445.011719 C 550.152344 444.273438 550.746094 443.566406 551.375 442.890625 C 552.003906 442.210938 552.660156 441.566406 553.351562 440.953125 C 554.042969 440.339844 554.765625 439.761719 555.511719 439.21875 C 556.261719 438.675781 557.035156 438.171875 557.832031 437.707031 C 558.628906 437.238281 559.449219 436.8125 560.289062 436.429688 C 561.128906 436.042969 561.984375 435.699219 562.855469 435.398438 C 563.730469 435.09375 564.617188 434.835938 565.515625 434.621094 C 566.414062 434.40625 567.320312 434.238281 568.238281 434.113281 C 569.152344 433.988281 570.074219 433.90625 570.996094 433.871094 C 571.917969 433.835938 572.84375 433.847656 573.765625 433.902344 C 574.6875 433.960938 575.605469 434.058594 576.515625 434.207031 C 577.429688 434.351562 578.332031 434.542969 579.226562 434.777344 C 580.121094 435.011719 581 435.289062 581.867188 435.613281 C 582.734375 435.933594 583.582031 436.296875 584.414062 436.699219 C 585.242188 437.105469 586.050781 437.550781 586.839844 438.035156 C 587.625 438.519531 588.386719 439.039062 589.125 439.597656 C 589.859375 440.160156 590.566406 440.753906 591.242188 441.382812 C 591.921875 442.007812 592.566406 442.671875 593.179688 443.363281 C 593.789062 444.054688 594.367188 444.773438 594.910156 445.523438 C 595.449219 446.273438 595.953125 447.046875 596.421875 447.84375 C 596.886719 448.640625 597.3125 449.460938 597.695312 450.300781 C 598.082031 451.140625 598.425781 452 598.726562 452.871094 C 599.027344 453.746094 599.28125 454.632812 599.496094 455.53125 C 599.710938 456.429688 599.878906 457.339844 600.003906 458.253906 C 600.128906 459.167969 600.207031 460.089844 600.242188 461.011719 C 600.273438 461.9375 600.261719 462.859375 600.207031 463.78125 C 600.148438 464.703125 600.046875 465.621094 599.902344 466.535156 L 572.058594 633.59375 C 571.925781 634.410156 571.757812 635.21875 571.554688 636.019531 C 571.351562 636.820312 571.109375 637.609375 570.835938 638.386719 C 570.5625 639.167969 570.253906 639.933594 569.910156 640.683594 C 569.570312 641.433594 569.195312 642.171875 568.785156 642.886719 C 568.378906 643.605469 567.9375 644.304688 567.46875 644.984375 C 567 645.664062 566.5 646.320312 565.972656 646.957031 C 565.441406 647.589844 564.886719 648.199219 564.304688 648.785156 C 563.722656 649.371094 563.113281 649.929688 562.480469 650.460938 C 561.847656 650.992188 561.195312 651.496094 560.515625 651.96875 C 559.839844 652.441406 559.144531 652.882812 558.425781 653.292969 C 557.710938 653.703125 556.976562 654.082031 556.226562 654.429688 C 555.476562 654.773438 554.710938 655.085938 553.933594 655.363281 C 553.15625 655.640625 552.367188 655.882812 551.566406 656.09375 C 550.769531 656.300781 549.960938 656.472656 549.144531 656.605469 C 548.332031 656.742188 547.511719 656.84375 546.6875 656.90625 C 545.863281 656.96875 545.039062 656.992188 544.214844 656.984375 Z M 544.214844 656.984375 " fill-opacity="1" fill-rule="nonzero"/></g></svg>